<svg width="492" height="232" viewBox="0 0 492 232" fill="none" xmlns="http://www.w3.org/2000/svg">
<path d="M9.90767 174V43.0909H41.5483V148.304H96.0085V174H9.90767ZM140.066 175.662C133.801 175.662 128.24 174.618 123.382 172.53C118.567 170.399 114.753 167.203 111.941 162.942C109.171 158.638 107.786 153.247 107.786 146.77C107.786 141.315 108.745 136.713 110.662 132.963C112.58 129.213 115.222 126.166 118.588 123.822C121.955 121.479 125.833 119.71 130.222 118.517C134.611 117.281 139.299 116.45 144.284 116.024C149.867 115.513 154.363 114.98 157.772 114.426C161.181 113.83 163.652 112.999 165.186 111.933C166.763 110.825 167.551 109.27 167.551 107.267V106.947C167.551 103.666 166.422 101.131 164.164 99.3409C161.905 97.5511 158.858 96.6562 155.023 96.6562C150.89 96.6562 147.566 97.5511 145.051 99.3409C142.537 101.131 140.939 103.602 140.257 106.756L111.429 105.733C112.282 99.767 114.476 94.4403 118.013 89.7528C121.593 85.0227 126.493 81.3153 132.715 78.6307C138.979 75.9034 146.5 74.5398 155.279 74.5398C161.543 74.5398 167.317 75.2855 172.601 76.777C177.885 78.2258 182.488 80.3565 186.408 83.169C190.328 85.9389 193.354 89.348 195.485 93.3963C197.658 97.4446 198.745 102.068 198.745 107.267V174H169.341V160.321H168.574C166.827 163.645 164.59 166.457 161.863 168.759C159.178 171.06 156.003 172.786 152.338 173.936C148.716 175.087 144.625 175.662 140.066 175.662ZM149.718 155.207C153.084 155.207 156.11 154.526 158.794 153.162C161.522 151.798 163.695 149.923 165.314 147.537C166.934 145.108 167.743 142.295 167.743 139.099V129.767C166.848 130.236 165.762 130.662 164.483 131.045C163.248 131.429 161.884 131.791 160.392 132.132C158.901 132.473 157.367 132.771 155.79 133.027C154.213 133.283 152.701 133.517 151.252 133.73C148.311 134.199 145.797 134.923 143.709 135.903C141.664 136.884 140.087 138.162 138.979 139.739C137.914 141.273 137.381 143.105 137.381 145.236C137.381 148.474 138.532 150.946 140.833 152.651C143.176 154.355 146.138 155.207 149.718 155.207ZM273.276 75.8182V98.8295H211.337V75.8182H273.276ZM224.313 52.2955H255.57V143.126C255.57 145.044 255.868 146.599 256.465 147.793C257.104 148.943 258.02 149.774 259.213 150.286C260.407 150.754 261.834 150.989 263.496 150.989C264.689 150.989 265.946 150.882 267.267 150.669C268.631 150.413 269.654 150.2 270.336 150.03L275.066 172.594C273.574 173.02 271.465 173.553 268.738 174.192C266.053 174.831 262.836 175.236 259.086 175.406C251.756 175.747 245.471 174.895 240.229 172.849C235.03 170.761 231.046 167.523 228.276 163.134C225.549 158.744 224.228 153.226 224.313 146.578V52.2955ZM334.064 175.854C323.794 175.854 314.931 173.83 307.473 169.781C300.059 165.69 294.348 159.874 290.343 152.331C286.38 144.746 284.398 135.733 284.398 125.293C284.398 115.151 286.401 106.287 290.407 98.7017C294.412 91.0739 300.059 85.1506 307.346 80.9318C314.632 76.6705 323.219 74.5398 333.105 74.5398C340.094 74.5398 346.486 75.6264 352.282 77.7997C358.077 79.973 363.084 83.1903 367.303 87.4517C371.522 91.7131 374.803 96.9759 377.147 103.24C379.49 109.462 380.662 116.599 380.662 124.653V132.452H295.328V114.298H351.578C351.536 110.974 350.748 108.013 349.213 105.413C347.679 102.814 345.57 100.79 342.885 99.3409C340.243 97.8494 337.196 97.1037 333.745 97.1037C330.25 97.1037 327.118 97.892 324.348 99.4688C321.578 101.003 319.384 103.112 317.765 105.797C316.145 108.439 315.293 111.443 315.208 114.81V133.283C315.208 137.288 315.996 140.804 317.573 143.83C319.15 146.812 321.387 149.135 324.284 150.797C327.182 152.459 330.634 153.29 334.64 153.29C337.409 153.29 339.924 152.906 342.182 152.139C344.441 151.372 346.38 150.243 347.999 148.751C349.618 147.26 350.833 145.428 351.642 143.254L380.343 144.085C379.15 150.52 376.529 156.124 372.48 160.896C368.475 165.626 363.212 169.312 356.692 171.955C350.172 174.554 342.63 175.854 334.064 175.854ZM421.811 75.8182L437.983 108.162L454.73 75.8182H486.243L458.821 124.909L487.266 174H456.009L437.983 141.401L420.405 174H388.7L417.209 124.909L390.107 75.8182H421.811Z" fill="white"/>
<path d="M224.5 75.82L224.32 52.3C223.5 68 227.5 75.5 211.34 75.82H224.5Z" fill="white"/>
<path d="M9 203H95" stroke="white" stroke-width="8" stroke-linecap="round"/>
<path d="M288 203H362" stroke="white" stroke-width="8" stroke-linecap="round"/>
<path d="M381.642 220V185.091H396.062C398.676 185.091 400.932 185.602 402.83 186.625C404.739 187.636 406.21 189.051 407.244 190.869C408.278 192.676 408.795 194.778 408.795 197.176C408.795 199.585 408.267 201.693 407.21 203.5C406.165 205.295 404.67 206.687 402.727 207.676C400.784 208.665 398.477 209.159 395.807 209.159H386.909V202.511H394.239C395.511 202.511 396.574 202.29 397.426 201.847C398.29 201.403 398.943 200.784 399.386 199.989C399.83 199.182 400.051 198.244 400.051 197.176C400.051 196.097 399.83 195.165 399.386 194.381C398.943 193.585 398.29 192.972 397.426 192.54C396.563 192.108 395.5 191.892 394.239 191.892H390.08V220H381.642ZM418.715 220V185.091H433.135C435.749 185.091 438.004 185.562 439.902 186.506C441.811 187.437 443.283 188.778 444.317 190.528C445.351 192.267 445.868 194.33 445.868 196.716C445.868 199.136 445.34 201.193 444.283 202.886C443.226 204.568 441.726 205.852 439.783 206.739C437.84 207.614 435.538 208.051 432.879 208.051H423.76V201.403H431.311C432.584 201.403 433.646 201.239 434.499 200.909C435.362 200.568 436.016 200.057 436.459 199.375C436.902 198.682 437.124 197.795 437.124 196.716C437.124 195.636 436.902 194.744 436.459 194.04C436.016 193.324 435.362 192.79 434.499 192.438C433.635 192.074 432.573 191.892 431.311 191.892H427.152V220H418.715ZM438.368 204.045L447.061 220H437.857L429.334 204.045H438.368ZM489.205 202.545C489.205 206.386 488.466 209.642 486.989 212.312C485.511 214.983 483.511 217.011 480.989 218.398C478.477 219.784 475.659 220.477 472.534 220.477C469.398 220.477 466.574 219.778 464.063 218.381C461.551 216.983 459.557 214.955 458.08 212.295C456.614 209.625 455.881 206.375 455.881 202.545C455.881 198.705 456.614 195.449 458.08 192.778C459.557 190.108 461.551 188.08 464.063 186.693C466.574 185.307 469.398 184.614 472.534 184.614C475.659 184.614 478.477 185.307 480.989 186.693C483.511 188.08 485.511 190.108 486.989 192.778C488.466 195.449 489.205 198.705 489.205 202.545ZM480.58 202.545C480.58 200.273 480.256 198.352 479.608 196.784C478.972 195.216 478.051 194.028 476.847 193.222C475.654 192.415 474.216 192.011 472.534 192.011C470.864 192.011 469.426 192.415 468.222 193.222C467.017 194.028 466.091 195.216 465.443 196.784C464.807 198.352 464.489 200.273 464.489 202.545C464.489 204.818 464.807 206.739 465.443 208.307C466.091 209.875 467.017 211.062 468.222 211.869C469.426 212.676 470.864 213.08 472.534 213.08C474.216 213.08 475.654 212.676 476.847 211.869C478.051 211.062 478.972 209.875 479.608 208.307C480.256 206.739 480.58 204.818 480.58 202.545Z" fill="white"/>
<path d="M125.616 202.96C125.616 201.104 126.288 199.632 127.632 198.544C128.976 197.456 130.8 196.912 133.104 196.912C135.408 196.912 137.616 197.392 139.728 198.352C141.904 199.248 143.664 200.368 145.008 201.712C146.352 202.992 147.536 204.368 148.56 205.84C150.352 208.528 151.248 210.416 151.248 211.504C151.248 211.76 150.864 212.08 150.096 212.464C149.392 212.848 148.784 213.04 148.272 213.04C146.16 208.496 142.928 206.064 138.576 205.744L132.624 209.872C130.448 209.872 128.752 209.2 127.536 207.856C126.256 206.448 125.616 204.816 125.616 202.96Z" fill="white"/>
<path d="M126.874 205.259L123.007 199.723C122.549 199.068 123.006 198.168 123.804 198.151L130.451 198.001L126.874 205.259Z" fill="white" stroke="white" stroke-width="2" stroke-linecap="round"/>
<path d="M240.616 202.96C240.616 201.104 241.288 199.632 242.632 198.544C243.976 197.456 245.8 196.912 248.104 196.912C250.408 196.912 252.616 197.392 254.728 198.352C256.904 199.248 258.664 200.368 260.008 201.712C261.352 202.992 262.536 204.368 263.56 205.84C265.352 208.528 266.248 210.416 266.248 211.504C266.248 211.76 265.864 212.08 265.096 212.464C264.392 212.848 263.784 213.04 263.272 213.04C261.16 208.496 257.928 206.064 253.576 205.744L247.624 209.872C245.448 209.872 243.752 209.2 242.536 207.856C241.256 206.448 240.616 204.816 240.616 202.96Z" fill="white"/>
<path d="M241.874 205.259L238.007 199.723C237.549 199.068 238.006 198.168 238.804 198.151L245.451 198.001L241.874 205.259Z" fill="white" stroke="white" stroke-width="2" stroke-linecap="round"/>
<path d="M167 206.914C176.6 207.733 198.12 208.881 207.4 206.914C210.467 206.504 217.08 204.147 219 198" stroke="white" stroke-width="8" stroke-linecap="round"/>
</svg>
