<svg width="700" height="338" viewBox="0 0 700 338" fill="none" xmlns="http://www.w3.org/2000/svg">
<rect width="700" height="337.896" fill="#141414"/>
<path d="M113.908 227V96.0909H145.548V201.304H200.009V227H113.908ZM244.066 228.662C237.801 228.662 232.24 227.618 227.382 225.53C222.567 223.399 218.753 220.203 215.941 215.942C213.171 211.638 211.786 206.247 211.786 199.77C211.786 194.315 212.745 189.713 214.662 185.963C216.58 182.213 219.222 179.166 222.588 176.822C225.955 174.479 229.833 172.71 234.222 171.517C238.611 170.281 243.299 169.45 248.284 169.024C253.867 168.513 258.363 167.98 261.772 167.426C265.181 166.83 267.652 165.999 269.186 164.933C270.763 163.825 271.551 162.27 271.551 160.267V159.947C271.551 156.666 270.422 154.131 268.164 152.341C265.905 150.551 262.858 149.656 259.023 149.656C254.89 149.656 251.566 150.551 249.051 152.341C246.537 154.131 244.939 156.602 244.257 159.756L215.429 158.733C216.282 152.767 218.476 147.44 222.013 142.753C225.593 138.023 230.493 134.315 236.715 131.631C242.979 128.903 250.5 127.54 259.279 127.54C265.543 127.54 271.317 128.286 276.601 129.777C281.885 131.226 286.488 133.357 290.408 136.169C294.328 138.939 297.354 142.348 299.485 146.396C301.658 150.445 302.745 155.068 302.745 160.267V227H273.341V213.321H272.574C270.827 216.645 268.59 219.457 265.863 221.759C263.178 224.06 260.003 225.786 256.338 226.936C252.716 228.087 248.625 228.662 244.066 228.662ZM253.718 208.207C257.084 208.207 260.11 207.526 262.794 206.162C265.522 204.798 267.695 202.923 269.314 200.537C270.934 198.108 271.743 195.295 271.743 192.099V182.767C270.848 183.236 269.762 183.662 268.483 184.045C267.248 184.429 265.884 184.791 264.392 185.132C262.901 185.473 261.367 185.771 259.79 186.027C258.213 186.283 256.701 186.517 255.252 186.73C252.311 187.199 249.797 187.923 247.709 188.903C245.664 189.884 244.087 191.162 242.979 192.739C241.914 194.273 241.381 196.105 241.381 198.236C241.381 201.474 242.532 203.946 244.833 205.651C247.176 207.355 250.138 208.207 253.718 208.207ZM377.276 128.818V151.83H315.337V128.818H377.276ZM328.313 105.295H359.57V196.126C359.57 198.044 359.868 199.599 360.465 200.793C361.104 201.943 362.02 202.774 363.213 203.286C364.407 203.754 365.834 203.989 367.496 203.989C368.689 203.989 369.946 203.882 371.267 203.669C372.631 203.413 373.654 203.2 374.336 203.03L379.066 225.594C377.574 226.02 375.465 226.553 372.738 227.192C370.053 227.831 366.836 228.236 363.086 228.406C355.756 228.747 349.471 227.895 344.229 225.849C339.03 223.761 335.046 220.523 332.276 216.134C329.549 211.744 328.228 206.226 328.313 199.578V105.295ZM438.064 228.854C427.794 228.854 418.931 226.83 411.473 222.781C404.059 218.69 398.348 212.874 394.343 205.331C390.38 197.746 388.398 188.733 388.398 178.293C388.398 168.151 390.401 159.287 394.407 151.702C398.412 144.074 404.059 138.151 411.346 133.932C418.632 129.67 427.219 127.54 437.105 127.54C444.094 127.54 450.486 128.626 456.282 130.8C462.077 132.973 467.084 136.19 471.303 140.452C475.522 144.713 478.803 149.976 481.147 156.24C483.49 162.462 484.662 169.599 484.662 177.653V185.452H399.328V167.298H455.578C455.536 163.974 454.748 161.013 453.213 158.413C451.679 155.814 449.57 153.79 446.885 152.341C444.243 150.849 441.196 150.104 437.745 150.104C434.25 150.104 431.118 150.892 428.348 152.469C425.578 154.003 423.384 156.112 421.765 158.797C420.145 161.439 419.293 164.443 419.208 167.81V186.283C419.208 190.288 419.996 193.804 421.573 196.83C423.15 199.812 425.387 202.135 428.284 203.797C431.182 205.459 434.634 206.29 438.64 206.29C441.409 206.29 443.924 205.906 446.182 205.139C448.441 204.372 450.38 203.243 451.999 201.751C453.618 200.26 454.833 198.428 455.642 196.254L484.343 197.085C483.15 203.52 480.529 209.124 476.48 213.896C472.475 218.626 467.212 222.312 460.692 224.955C454.172 227.554 446.63 228.854 438.064 228.854ZM525.811 128.818L541.983 161.162L558.73 128.818H590.243L562.821 177.909L591.266 227H560.009L541.983 194.401L524.405 227H492.7L521.209 177.909L494.107 128.818H525.811Z" fill="white"/>
<path d="M328.5 128.82L328.32 105.3C327.5 121 331.5 128.5 315.34 128.82H328.5Z" fill="white"/>
<path d="M113 256H199" stroke="white" stroke-width="8" stroke-linecap="round"/>
<path d="M392 256H466" stroke="white" stroke-width="8" stroke-linecap="round"/>
<path d="M485.642 273V238.091H500.062C502.676 238.091 504.932 238.602 506.83 239.625C508.739 240.636 510.21 242.051 511.244 243.869C512.278 245.676 512.795 247.778 512.795 250.176C512.795 252.585 512.267 254.693 511.21 256.5C510.165 258.295 508.67 259.687 506.727 260.676C504.784 261.665 502.477 262.159 499.807 262.159H490.909V255.511H498.239C499.511 255.511 500.574 255.29 501.426 254.847C502.29 254.403 502.943 253.784 503.386 252.989C503.83 252.182 504.051 251.244 504.051 250.176C504.051 249.097 503.83 248.165 503.386 247.381C502.943 246.585 502.29 245.972 501.426 245.54C500.563 245.108 499.5 244.892 498.239 244.892H494.08V273H485.642ZM522.715 273V238.091H537.135C539.749 238.091 542.004 238.562 543.902 239.506C545.811 240.437 547.283 241.778 548.317 243.528C549.351 245.267 549.868 247.33 549.868 249.716C549.868 252.136 549.34 254.193 548.283 255.886C547.226 257.568 545.726 258.852 543.783 259.739C541.84 260.614 539.538 261.051 536.879 261.051H527.76V254.403H535.311C536.584 254.403 537.646 254.239 538.499 253.909C539.362 253.568 540.016 253.057 540.459 252.375C540.902 251.682 541.124 250.795 541.124 249.716C541.124 248.636 540.902 247.744 540.459 247.04C540.016 246.324 539.362 245.79 538.499 245.438C537.635 245.074 536.573 244.892 535.311 244.892H531.152V273H522.715ZM542.368 257.045L551.061 273H541.857L533.334 257.045H542.368ZM593.205 255.545C593.205 259.386 592.466 262.642 590.989 265.312C589.511 267.983 587.511 270.011 584.989 271.398C582.477 272.784 579.659 273.477 576.534 273.477C573.398 273.477 570.574 272.778 568.063 271.381C565.551 269.983 563.557 267.955 562.08 265.295C560.614 262.625 559.881 259.375 559.881 255.545C559.881 251.705 560.614 248.449 562.08 245.778C563.557 243.108 565.551 241.08 568.063 239.693C570.574 238.307 573.398 237.614 576.534 237.614C579.659 237.614 582.477 238.307 584.989 239.693C587.511 241.08 589.511 243.108 590.989 245.778C592.466 248.449 593.205 251.705 593.205 255.545ZM584.58 255.545C584.58 253.273 584.256 251.352 583.608 249.784C582.972 248.216 582.051 247.028 580.847 246.222C579.654 245.415 578.216 245.011 576.534 245.011C574.864 245.011 573.426 245.415 572.222 246.222C571.017 247.028 570.091 248.216 569.443 249.784C568.807 251.352 568.489 253.273 568.489 255.545C568.489 257.818 568.807 259.739 569.443 261.307C570.091 262.875 571.017 264.062 572.222 264.869C573.426 265.676 574.864 266.08 576.534 266.08C578.216 266.08 579.654 265.676 580.847 264.869C582.051 264.062 582.972 262.875 583.608 261.307C584.256 259.739 584.58 257.818 584.58 255.545Z" fill="white"/>
<path d="M229.616 255.96C229.616 254.104 230.288 252.632 231.632 251.544C232.976 250.456 234.8 249.912 237.104 249.912C239.408 249.912 241.616 250.392 243.728 251.352C245.904 252.248 247.664 253.368 249.008 254.712C250.352 255.992 251.536 257.368 252.56 258.84C254.352 261.528 255.248 263.416 255.248 264.504C255.248 264.76 254.864 265.08 254.096 265.464C253.392 265.848 252.784 266.04 252.272 266.04C250.16 261.496 246.928 259.064 242.576 258.744L236.624 262.872C234.448 262.872 232.752 262.2 231.536 260.856C230.256 259.448 229.616 257.816 229.616 255.96Z" fill="white"/>
<path d="M230.874 258.259L227.007 252.723C226.549 252.068 227.006 251.168 227.804 251.151L234.451 251.001L230.874 258.259Z" fill="white" stroke="white" stroke-width="2" stroke-linecap="round"/>
<path d="M344.616 255.96C344.616 254.104 345.288 252.632 346.632 251.544C347.976 250.456 349.8 249.912 352.104 249.912C354.408 249.912 356.616 250.392 358.728 251.352C360.904 252.248 362.664 253.368 364.008 254.712C365.352 255.992 366.536 257.368 367.56 258.84C369.352 261.528 370.248 263.416 370.248 264.504C370.248 264.76 369.864 265.08 369.096 265.464C368.392 265.848 367.784 266.04 367.272 266.04C365.16 261.496 361.928 259.064 357.576 258.744L351.624 262.872C349.448 262.872 347.752 262.2 346.536 260.856C345.256 259.448 344.616 257.816 344.616 255.96Z" fill="white"/>
<path d="M345.874 258.259L342.007 252.723C341.549 252.068 342.006 251.168 342.804 251.151L349.451 251.001L345.874 258.259Z" fill="white" stroke="white" stroke-width="2" stroke-linecap="round"/>
<path d="M271 259.914C280.6 260.733 302.12 261.881 311.4 259.914C314.467 259.504 321.08 257.147 323 251" stroke="white" stroke-width="8" stroke-linecap="round"/>
</svg>
